<mxfile host="app.diagrams.net" modified="2023-10-04T03:57:38.787Z" agent="Mozilla/5.0 (Windows NT 10.0; Win64; x64) AppleWebKit/537.36 (KHTML, like Gecko) Chrome/116.0.0.0 Safari/537.36 OPR/102.0.0.0" etag="hvGaMSKbGQJqBPBJOSai" version="22.0.0" type="google">
  <diagram name="Page-1" id="Ow-oQP-kSh-1Gy8wjRKc">
    <mxGraphModel grid="1" page="1" gridSize="10" guides="1" tooltips="1" connect="1" arrows="1" fold="1" pageScale="1" pageWidth="850" pageHeight="1100" math="0" shadow="0">
      <root>
        <mxCell id="0" />
        <mxCell id="1" parent="0" />
        <mxCell id="4b-dwZ5xvKsQ-CS_L0zF-3" style="edgeStyle=orthogonalEdgeStyle;rounded=0;orthogonalLoop=1;jettySize=auto;html=1;entryX=0.5;entryY=0;entryDx=0;entryDy=0;" edge="1" parent="1" source="4b-dwZ5xvKsQ-CS_L0zF-1">
          <mxGeometry relative="1" as="geometry">
            <mxPoint x="425" y="190" as="targetPoint" />
          </mxGeometry>
        </mxCell>
        <mxCell id="4b-dwZ5xvKsQ-CS_L0zF-1" value="bắt đầu" style="ellipse;whiteSpace=wrap;html=1;" vertex="1" parent="1">
          <mxGeometry x="365" y="40" width="120" height="80" as="geometry" />
        </mxCell>
        <mxCell id="4b-dwZ5xvKsQ-CS_L0zF-5" style="edgeStyle=orthogonalEdgeStyle;rounded=0;orthogonalLoop=1;jettySize=auto;html=1;entryX=0.5;entryY=0;entryDx=0;entryDy=0;" edge="1" parent="1" target="4b-dwZ5xvKsQ-CS_L0zF-4">
          <mxGeometry relative="1" as="geometry">
            <mxPoint x="425" y="250" as="sourcePoint" />
          </mxGeometry>
        </mxCell>
        <mxCell id="4b-dwZ5xvKsQ-CS_L0zF-11" style="edgeStyle=orthogonalEdgeStyle;rounded=0;orthogonalLoop=1;jettySize=auto;html=1;entryX=1;entryY=0.5;entryDx=0;entryDy=0;" edge="1" parent="1" source="4b-dwZ5xvKsQ-CS_L0zF-4" target="4b-dwZ5xvKsQ-CS_L0zF-6">
          <mxGeometry relative="1" as="geometry" />
        </mxCell>
        <mxCell id="4b-dwZ5xvKsQ-CS_L0zF-13" style="edgeStyle=orthogonalEdgeStyle;rounded=0;orthogonalLoop=1;jettySize=auto;html=1;entryX=0;entryY=0.5;entryDx=0;entryDy=0;" edge="1" parent="1" source="4b-dwZ5xvKsQ-CS_L0zF-4" target="4b-dwZ5xvKsQ-CS_L0zF-12">
          <mxGeometry relative="1" as="geometry" />
        </mxCell>
        <mxCell id="4b-dwZ5xvKsQ-CS_L0zF-4" value="kiểm tra nếu&amp;nbsp;&lt;br&gt;0&amp;lt;=r" style="rhombus;whiteSpace=wrap;html=1;" vertex="1" parent="1">
          <mxGeometry x="373" y="330" width="105" height="80" as="geometry" />
        </mxCell>
        <mxCell id="4b-dwZ5xvKsQ-CS_L0zF-7" style="edgeStyle=orthogonalEdgeStyle;rounded=0;orthogonalLoop=1;jettySize=auto;html=1;entryX=0.5;entryY=0;entryDx=0;entryDy=0;" edge="1" parent="1" source="4b-dwZ5xvKsQ-CS_L0zF-6" target="4b-dwZ5xvKsQ-CS_L0zF-10">
          <mxGeometry relative="1" as="geometry">
            <mxPoint x="200" y="470" as="targetPoint" />
          </mxGeometry>
        </mxCell>
        <mxCell id="4b-dwZ5xvKsQ-CS_L0zF-6" value="Tính&lt;br&gt;ChuVi = 3.14 * 2r&lt;br&gt;DienTich = 3.14 * r * r" style="rounded=0;whiteSpace=wrap;html=1;" vertex="1" parent="1">
          <mxGeometry x="140" y="340" width="120" height="60" as="geometry" />
        </mxCell>
        <mxCell id="4b-dwZ5xvKsQ-CS_L0zF-9" value="nhập vào bán kính hình tròn" style="shape=parallelogram;perimeter=parallelogramPerimeter;whiteSpace=wrap;html=1;fixedSize=1;" vertex="1" parent="1">
          <mxGeometry x="365" y="190" width="120" height="60" as="geometry" />
        </mxCell>
        <mxCell id="4b-dwZ5xvKsQ-CS_L0zF-10" value="Xuất ra kết quả" style="shape=parallelogram;perimeter=parallelogramPerimeter;whiteSpace=wrap;html=1;fixedSize=1;" vertex="1" parent="1">
          <mxGeometry x="140" y="470" width="120" height="60" as="geometry" />
        </mxCell>
        <mxCell id="4b-dwZ5xvKsQ-CS_L0zF-14" style="edgeStyle=orthogonalEdgeStyle;rounded=0;orthogonalLoop=1;jettySize=auto;html=1;entryX=0.75;entryY=0;entryDx=0;entryDy=0;" edge="1" parent="1" source="4b-dwZ5xvKsQ-CS_L0zF-12" target="4b-dwZ5xvKsQ-CS_L0zF-9">
          <mxGeometry relative="1" as="geometry">
            <mxPoint x="450" y="150" as="targetPoint" />
            <Array as="points">
              <mxPoint x="650" y="150" />
              <mxPoint x="455" y="150" />
            </Array>
          </mxGeometry>
        </mxCell>
        <mxCell id="4b-dwZ5xvKsQ-CS_L0zF-12" value="Yêu cầu nhập chính xác" style="rounded=0;whiteSpace=wrap;html=1;" vertex="1" parent="1">
          <mxGeometry x="590" y="340" width="120" height="60" as="geometry" />
        </mxCell>
        <mxCell id="4b-dwZ5xvKsQ-CS_L0zF-15" value="Sai" style="text;html=1;strokeColor=none;fillColor=none;align=center;verticalAlign=middle;whiteSpace=wrap;rounded=0;" vertex="1" parent="1">
          <mxGeometry x="500" y="340" width="60" height="30" as="geometry" />
        </mxCell>
        <mxCell id="4b-dwZ5xvKsQ-CS_L0zF-16" value="đúng" style="text;html=1;strokeColor=none;fillColor=none;align=center;verticalAlign=middle;whiteSpace=wrap;rounded=0;" vertex="1" parent="1">
          <mxGeometry x="290" y="340" width="60" height="30" as="geometry" />
        </mxCell>
      </root>
    </mxGraphModel>
  </diagram>
</mxfile>
